<svg xmlns="http://www.w3.org/2000/svg" xmlns:xlink="http://www.w3.org/1999/xlink" width="14" height="16" viewBox="0 0 14 16"><defs><style>.a{fill:none;}.b{clip-path:url(#a);}.c{fill:#a5a4bf;}</style><clipPath id="a"><rect class="a" width="14" height="16"/></clipPath></defs><g class="b"><path class="c" d="M15,1H1A1,1,0,0,0,0,2V14a1,1,0,0,0,1,1H15a1,1,0,0,0,1-1V2A1,1,0,0,0,15,1ZM14,13H2V6.723L7.931,13c.308.176-.307.176,0,0L14,6.723Zm0-8.58-6.069,2.3L2,4.42V3H14Z" transform="translate(-1 16) rotate(-90)"/></g></svg>