<svg xmlns="http://www.w3.org/2000/svg" xmlns:xlink="http://www.w3.org/1999/xlink" width="17" height="17" viewBox="0 0 17 17"><defs><style>.a{fill:none;}.b{clip-path:url(#a);}.c{clip-path:url(#b);}.d{fill:#a5a4bf;}</style><clipPath id="a"><rect class="a" width="17" height="17"/></clipPath><clipPath id="b"><rect class="a" width="14" height="16"/></clipPath></defs><g class="b"><g class="c" transform="translate(3 1)"><path class="d" d="M-4-310a6.018,6.018,0,0,1,6-6H4a6.018,6.018,0,0,1,6,6Zm2.6-2H7.5A4.033,4.033,0,0,0,4-314H2.1A4.035,4.035,0,0,0-1.4-312Zm.4-9v-1a4.012,4.012,0,0,1,4-4,4.012,4.012,0,0,1,4,4v1a4.012,4.012,0,0,1-4,4A4.012,4.012,0,0,1-1-321Zm2-1v1a2.006,2.006,0,0,0,2,2,2.006,2.006,0,0,0,2-2v-1a2.006,2.006,0,0,0-2-2A2.006,2.006,0,0,0,1-322Z" transform="translate(4 326)"/></g><path class="d" d="M8,2C9.1,2,9.1,7,8,7A2.006,2.006,0,0,1,6,5V4A2.006,2.006,0,0,1,8,2M8,0A4.012,4.012,0,0,0,4,4V5A4.012,4.012,0,0,0,8,9c2.2,0,0-1.8,0-4l3.707-3C10.657.373,10.2,0,8,0Z" transform="translate(-1)"/><path class="d" d="M5.98,14H3.6A4.132,4.132,0,0,1,7,11.731M9,10H7a6.018,6.018,0,0,0-6,6H15l-9.02-.642c0-3.3,10.84-3.627,7.54-3.627l-1.909-.668-1.146-.573Z" transform="translate(-1)"/></g></svg>